<svg width="50" height="50" viewBox="0 0 50 50" fill="none" xmlns="http://www.w3.org/2000/svg">
<path d="M21.5355 44.0367C16.5863 44.0367 11.7132 42.1331 8.05837 38.4783C4.47969 34.8996 2.5 30.1026 2.5 25.0011C2.5 19.8996 4.47969 15.1026 8.05837 11.5239C14.3782 5.20415 24.4289 4.13817 31.8909 9.01126C32.2716 9.23969 32.3477 9.69656 32.1193 10.0773C31.8908 10.458 31.434 10.5341 31.0533 10.3057C24.2005 5.8133 14.9112 6.80315 9.12438 12.59C5.85026 15.8641 4.02284 20.2803 4.02284 25.0011C4.02284 29.7219 5.85026 34.062 9.12438 37.4123C15.0635 43.3514 24.4289 44.2651 31.3579 39.5443C31.7386 39.3159 32.1954 39.392 32.4239 39.7727C32.6523 40.1534 32.5762 40.6103 32.1954 40.8387C28.9213 42.9707 25.1904 44.0367 21.5355 44.0367Z" fill="#262626"/>
<path d="M21.4594 35.6611C18.6421 35.6611 15.901 34.519 13.9213 32.5393C9.73351 28.3514 9.73351 21.6509 13.9213 17.4631C18.1091 13.2753 24.8096 13.2753 28.9975 17.4631C30.9772 19.4428 32.1193 22.1839 32.1193 25.0012C32.1193 27.8184 30.9772 30.5596 28.9975 32.5393C27.0178 34.519 24.3528 35.6611 21.4594 35.6611ZM21.4594 15.8641C19.099 15.8641 16.8147 16.7778 14.9873 18.5291C11.4086 22.1078 11.4086 27.8946 14.9873 31.4732C16.7386 33.2245 19.0228 34.1382 21.4594 34.1382C23.8959 34.1382 26.1802 33.2245 27.9315 31.4732C29.6827 29.722 30.5964 27.4377 30.5964 25.0012C30.5964 22.5646 29.6827 20.2804 27.9315 18.5291C26.1802 16.7778 23.8198 15.8641 21.4594 15.8641Z" fill="#262626"/>
<path d="M26.7893 26.524C27.6303 26.524 28.3121 25.8422 28.3121 25.0011C28.3121 24.1601 27.6303 23.4783 26.7893 23.4783C25.9482 23.4783 25.2664 24.1601 25.2664 25.0011C25.2664 25.8422 25.9482 26.524 26.7893 26.524Z" fill="#262626"/>
<path d="M16.2056 26.524C17.0466 26.524 17.7284 25.8422 17.7284 25.0011C17.7284 24.1601 17.0466 23.4783 16.2056 23.4783C15.3645 23.4783 14.6827 24.1601 14.6827 25.0011C14.6827 25.8422 15.3645 26.524 16.2056 26.524Z" fill="#262626"/>
<path d="M21.4593 31.7778C22.3004 31.7778 22.9822 31.096 22.9822 30.2549C22.9822 29.4139 22.3004 28.7321 21.4593 28.7321C20.6183 28.7321 19.9365 29.4139 19.9365 30.2549C19.9365 31.096 20.6183 31.7778 21.4593 31.7778Z" fill="#262626"/>
<path d="M21.4593 21.194C22.3004 21.194 22.9822 20.5122 22.9822 19.6712C22.9822 18.8301 22.3004 18.1483 21.4593 18.1483C20.6183 18.1483 19.9365 18.8301 19.9365 19.6712C19.9365 20.5122 20.6183 21.194 21.4593 21.194Z" fill="#262626"/>
<path d="M37.297 43.3514C36.9163 43.3514 36.4594 43.2752 36.0787 43.1229C34.8604 42.5899 34.099 41.5239 34.099 40.2295C34.099 32.2346 34.099 17.7676 34.099 10.0772C34.099 8.85897 34.7842 7.71684 35.9264 7.18385C37.0685 6.65085 38.3629 6.80312 39.2767 7.64068L40.7234 8.85894C45.0635 13.199 47.5 18.9859 47.5 25.0773C47.5 31.1686 45.1396 36.8793 40.7995 41.2194L39.5051 42.5138C38.8959 43.0468 38.0584 43.3514 37.297 43.3514ZM37.297 8.32598C37.0686 8.32598 36.8401 8.40208 36.6117 8.47823C36.0025 8.7828 35.6218 9.31579 35.6218 10.0011C35.6218 17.6914 35.6218 32.1585 35.6218 40.1534C35.6218 40.8387 36.0025 41.4478 36.6117 41.6762C37.0685 41.9047 37.83 41.9047 38.4391 41.2955L39.7335 40.0011C43.769 35.9656 45.9772 30.6356 45.9772 24.925C45.9772 19.2143 43.769 13.8844 39.7335 9.84882L38.3629 8.70669C38.0584 8.47826 37.6777 8.32598 37.297 8.32598Z" fill="#262626"/>
<path d="M42.3984 26.524C43.2395 26.524 43.9213 25.8422 43.9213 25.0011C43.9213 24.1601 43.2395 23.4783 42.3984 23.4783C41.5574 23.4783 40.8756 24.1601 40.8756 25.0011C40.8756 25.8422 41.5574 26.524 42.3984 26.524Z" fill="#262626"/>
<path d="M40.1142 18.1483C40.9552 18.1483 41.637 17.4665 41.637 16.6255C41.637 15.7844 40.9552 15.1026 40.1142 15.1026C39.2731 15.1026 38.5913 15.7844 38.5913 16.6255C38.5913 17.4665 39.2731 18.1483 40.1142 18.1483Z" fill="#262626"/>
<path d="M40.1142 34.8235C40.9552 34.8235 41.637 34.1417 41.637 33.3006C41.637 32.4596 40.9552 31.7778 40.1142 31.7778C39.2731 31.7778 38.5913 32.4596 38.5913 33.3006C38.5913 34.1417 39.2731 34.8235 40.1142 34.8235Z" fill="#262626"/>
</svg>
