<svg width="50" height="50" viewBox="0 0 50 50" fill="none" xmlns="http://www.w3.org/2000/svg">
<path d="M25 45C14.0037 45 5 36.0701 5 25C5 13.9299 13.9299 5 25 5C36.0701 5 45 13.9299 45 25C45 36.0701 35.9963 45 25 45ZM25 6.47602C14.8155 6.47602 6.47602 14.7417 6.47602 25C6.47602 35.1845 14.7417 43.524 25 43.524C35.2583 43.524 43.524 35.2583 43.524 25C43.524 14.8155 35.1845 6.47602 25 6.47602Z" fill="#262626"/>
<path d="M24.9999 27.4355C26.3449 27.4355 27.4353 26.3451 27.4353 25C27.4353 23.655 26.3449 22.5646 24.9999 22.5646C23.6548 22.5646 22.5644 23.655 22.5644 25C22.5644 26.3451 23.6548 27.4355 24.9999 27.4355Z" fill="#262626"/>
<path d="M25.0001 37.5461C18.0628 37.5461 12.4539 31.9373 12.4539 25C12.4539 18.0627 18.0628 12.4539 25.0001 12.4539C31.9373 12.4539 37.5462 18.0627 37.5462 25C37.5462 31.9373 31.9373 37.5461 25.0001 37.5461ZM25.0001 13.9299C18.8746 13.9299 13.93 18.8745 13.93 25C13.93 31.1255 18.8746 36.0701 25.0001 36.0701C31.1255 36.0701 36.0702 31.1255 36.0702 25C36.0702 18.8745 31.1255 13.9299 25.0001 13.9299Z" fill="#262626"/>
<path d="M20.4982 23.0813H13.4133C13.1919 23.0813 12.9705 23.0075 12.8229 22.7861C12.6753 22.6385 12.6015 22.3433 12.6753 22.1957C13.2657 19.6864 14.5941 17.3986 16.5868 15.6274C16.7344 15.4798 16.9558 15.406 17.1772 15.4798C17.3986 15.5536 17.62 15.6274 17.6938 15.8488L21.0886 21.9743C21.2362 22.1957 21.2362 22.4909 21.0886 22.7123C20.941 22.9337 20.7934 23.0813 20.4982 23.0813ZM14.4465 21.6053H19.3174L17.0296 17.3986C15.8488 18.5794 14.9631 19.9816 14.4465 21.6053Z" fill="#262626"/>
<path d="M36.5128 23.0813H29.4279C29.1327 23.0813 28.9113 22.9337 28.7637 22.7123C28.6161 22.4909 28.6161 22.1957 28.7637 21.9743L32.2323 15.8488C32.3061 15.6274 32.5276 15.5536 32.749 15.4798C32.9704 15.406 33.1918 15.4798 33.3394 15.6274C35.332 17.3986 36.6604 19.6126 37.2508 22.1957C37.3246 22.4171 37.2508 22.6385 37.1032 22.7861C36.9556 22.9337 36.7342 23.0813 36.5128 23.0813ZM30.6825 21.6053H35.5534C35.0368 20.0554 34.1512 18.5794 33.0442 17.3986L30.6825 21.6053Z" fill="#262626"/>
<path d="M24.9998 20.7934C24.7046 20.7934 24.4832 20.6458 24.3356 20.4244L20.867 14.0775C20.7932 13.8561 20.7194 13.6347 20.867 13.4133C20.9408 13.1919 21.0884 13.0443 21.3098 12.9705C23.7452 12.2325 26.402 12.2325 28.7636 12.9705C28.985 13.0443 29.1327 13.1919 29.2065 13.4133C29.2803 13.6347 29.2803 13.8561 29.1326 14.0775L25.5902 20.4244C25.5164 20.6458 25.2212 20.7934 24.9998 20.7934ZM22.5644 14.1513L24.926 18.5056L27.3614 14.1513C25.8116 13.7823 24.188 13.7823 22.5644 14.1513Z" fill="#262626"/>
<path d="M32.823 34.5941C32.7492 34.5941 32.7492 34.5941 32.6754 34.5941C32.454 34.5941 32.2326 34.4465 32.1588 34.2251L28.3212 27.6568C28.1736 27.4354 28.1736 27.1402 28.3212 26.9188C28.4688 26.6974 28.6902 26.5498 28.9854 26.5498H36.5869C36.8083 26.5498 37.0297 26.6236 37.1773 26.845C37.3249 26.9926 37.3987 27.214 37.3249 27.4354C36.8083 30.0922 35.406 32.6014 33.2658 34.4465C33.192 34.5203 32.9706 34.5941 32.823 34.5941ZM30.3138 28.0258L33.0444 32.6753C34.299 31.3468 35.2585 29.7232 35.7013 28.0258H30.3138Z" fill="#262626"/>
<path d="M17.1772 34.5941C17.0296 34.5941 16.8082 34.5203 16.6606 34.3727C14.5941 32.5277 13.1919 30.0922 12.6753 27.3616C12.6015 27.1402 12.6753 26.9188 12.8229 26.7712C12.9705 26.6236 13.1919 26.476 13.4133 26.476H20.941C21.2362 26.476 21.4576 26.6236 21.6052 26.845C21.7528 27.0664 21.7528 27.3616 21.6052 27.583L17.8414 34.1513C17.7676 34.3727 17.5462 34.4465 17.3248 34.5203C17.251 34.5941 17.1772 34.5941 17.1772 34.5941ZM14.299 28.0258C14.8156 29.7232 15.7012 31.3469 16.9558 32.6753L19.6126 28.0258H14.299Z" fill="#262626"/>
<path d="M25.0001 37.5461C23.7455 37.5461 22.4909 37.3247 21.2363 36.9557C21.0149 36.8819 20.8673 36.7343 20.7935 36.5129C20.7197 36.2915 20.7197 36.0701 20.8673 35.8487L24.3359 29.7233C24.4835 29.5019 24.7049 29.3543 25.0001 29.3543C25.2953 29.3543 25.5167 29.5019 25.6643 29.7233L29.2068 35.8487C29.3544 36.0701 29.3544 36.2915 29.2806 36.5129C29.2068 36.7343 29.0592 36.8819 28.8378 36.9557C27.5093 37.3985 26.2547 37.5461 25.0001 37.5461ZM22.5647 35.8487C24.1145 36.2177 25.7381 36.2177 27.3617 35.8487L24.9263 31.7159L22.5647 35.8487Z" fill="#262626"/>
</svg>
